<?xml version="1.0" encoding="utf-8"?>
<!-- Generator: Adobe Illustrator 24.0.1, SVG Export Plug-In . SVG Version: 6.00 Build 0)  -->
<svg version="1.1" id="Layer_1" xmlns="http://www.w3.org/2000/svg" xmlns:xlink="http://www.w3.org/1999/xlink" x="0px" y="0px"
	 viewBox="0 0 448 451.3" style="enable-background:new 0 0 448 451.3;" xml:space="preserve">
<style type="text/css">
	.st0{display:none;fill:#CBD400;}
	.st1{fill:url(#SVGID_1_);}
	.st2{fill:url(#SVGID_2_);}
	.st3{fill:url(#SVGID_3_);}
</style>
<path class="st0" d="M224.1,110.7c-63.6,0-114.9,51.3-114.9,114.9s51.3,114.9,114.9,114.9S339,289.2,339,225.6
	S287.6,110.7,224.1,110.7z M224.1,300.3c-41.1,0-74.7-33.5-74.7-74.7s33.5-74.7,74.7-74.7s74.7,33.5,74.7,74.7
	S265.1,300.3,224.1,300.3L224.1,300.3z M370.4,106c0,14.9-12,26.8-26.8,26.8c-14.9,0-26.8-12-26.8-26.8s12-26.8,26.8-26.8
	S370.4,91.2,370.4,106z M446.5,133.2c-1.7-35.9-9.9-67.7-36.2-93.9c-26.2-26.2-58-34.4-93.9-36.2c-37-2.1-147.9-2.1-184.9,0
	C95.7,4.8,64,13,37.6,39.2s-34.4,58-36.2,93.9c-2.1,37-2.1,147.9,0,184.9c1.7,35.9,9.9,67.7,36.2,93.9s58,34.4,93.9,36.2
	c37,2.1,147.9,2.1,184.9,0c35.9-1.7,67.7-9.9,93.9-36.2c26.2-26.2,34.4-58,36.2-93.9C448.6,281,448.6,170.2,446.5,133.2L446.5,133.2
	z M398.7,357.7c-7.8,19.6-22.9,34.7-42.6,42.6c-29.5,11.7-99.5,9-132.1,9s-102.7,2.6-132.1-9c-19.6-7.8-34.7-22.9-42.6-42.6
	c-11.7-29.5-9-99.5-9-132.1s-2.6-102.7,9-132.1c7.8-19.6,22.9-34.7,42.6-42.6c29.5-11.7,99.5-9,132.1-9s102.7-2.6,132.1,9
	c19.6,7.8,34.7,22.9,42.6,42.6c11.7,29.5,9,99.5,9,132.1S410.4,328.3,398.7,357.7z"/>
<g>
	
		<linearGradient id="SVGID_1_" gradientUnits="userSpaceOnUse" x1="224" y1="5563.6372" x2="224" y2="5120.4214" gradientTransform="matrix(1 0 0 1 0 -5115.2915)">
		<stop  offset="0" style="stop-color:#E09B3D"/>
		<stop  offset="0.3" style="stop-color:#C74C4D"/>
		<stop  offset="0.6" style="stop-color:#C21975"/>
		<stop  offset="1" style="stop-color:#7024C4"/>
	</linearGradient>
	<path class="st1" d="M314.5,1.6H133.5C59.9,1.6,0,61.5,0,135.1v181.1c0,73.6,59.9,133.5,133.5,133.5h181.1
		c73.6,0,133.5-59.9,133.5-133.5V135.1C448,61.5,388.1,1.6,314.5,1.6z M402.9,316.2c0,48.8-39.6,88.4-88.4,88.4H133.5
		c-48.8,0-88.4-39.6-88.4-88.4V135.1c0-48.8,39.6-88.4,88.4-88.4h181.1c48.8,0,88.4,39.6,88.4,88.4V316.2L402.9,316.2z"/>
	
		<linearGradient id="SVGID_2_" gradientUnits="userSpaceOnUse" x1="224" y1="5563.6372" x2="224" y2="5120.4214" gradientTransform="matrix(1 0 0 1 0 -5115.2915)">
		<stop  offset="0" style="stop-color:#E09B3D"/>
		<stop  offset="0.3" style="stop-color:#C74C4D"/>
		<stop  offset="0.6" style="stop-color:#C21975"/>
		<stop  offset="1" style="stop-color:#7024C4"/>
	</linearGradient>
	<path class="st2" d="M224,109.8c-63.9,0-115.9,52-115.9,115.9s52,115.9,115.9,115.9s115.9-52,115.9-115.9S287.9,109.8,224,109.8z
		 M224,296.4c-39.1,0-70.8-31.7-70.8-70.8s31.7-70.8,70.8-70.8c39.1,0,70.8,31.7,70.8,70.8C294.8,264.8,263.1,296.4,224,296.4z"/>
	
		<linearGradient id="SVGID_3_" gradientUnits="userSpaceOnUse" x1="340.0931" y1="5563.6372" x2="340.0931" y2="5120.4214" gradientTransform="matrix(1 0 0 1 0 -5115.2915)">
		<stop  offset="0" style="stop-color:#E09B3D"/>
		<stop  offset="0.3" style="stop-color:#C74C4D"/>
		<stop  offset="0.6" style="stop-color:#C21975"/>
		<stop  offset="1" style="stop-color:#7024C4"/>
	</linearGradient>
	<circle class="st3" cx="340.1" cy="110.7" r="27.8"/>
</g>
</svg>
