<?xml version="1.0" encoding="utf-8"?>
<!-- Generator: Adobe Illustrator 24.0.1, SVG Export Plug-In . SVG Version: 6.00 Build 0)  -->
<svg version="1.1" id="Layer_1" xmlns="http://www.w3.org/2000/svg" xmlns:xlink="http://www.w3.org/1999/xlink" x="0px" y="0px"
	 viewBox="0 0 400 137.36" style="enable-background:new 0 0 400 137.36;" xml:space="preserve">
<style type="text/css">
	.st0{fill:#FFFFFF;}
	.st1{fill:#010101;}
	.st2{fill:#C9D32C;}
</style>
<g>
	<g>
		<path class="st0" d="M240.99,1C293.66,1,346.33,1,399,1c0,44.12,0,88.25,0,132.37c-132.67,0-265.33,0-398,0C1,89.25,1,45.12,1,1
			c72.64,0,145.29,0,217.93,0c-0.25,0.92-0.74,1.85-0.74,2.77c-0.04,28.02-0.03,56.03-0.03,84.05c0,13.81,0,27.62,0,41.43
			c0,1.85,0.1,1.96,1.93,1.96c6.36,0,12.72-0.02,19.07,0.02c1.39,0.01,1.84-0.59,1.82-1.89c-0.05-2.19-0.02-4.37,0-6.56
			c0-0.49,0.11-0.98,0.2-1.71c0.46,0.35,0.68,0.47,0.82,0.65c4.99,6.16,11.57,9.63,19.26,10.92c7.1,1.19,14.15,0.83,20.99-1.71
			c10.72-3.99,16.79-12.23,20.41-22.61c1.89-5.42,2.71-11.06,3.07-16.78c0.65-10.23-0.28-20.24-4.1-29.83
			c-2.93-7.36-7.62-13.31-14.57-17.32c-5.06-2.92-10.59-4.11-16.36-4.39c-4.29-0.2-8.53,0.1-12.66,1.36
			c-6.04,1.83-10.85,5.46-14.87,10.23c-0.35,0.42-0.75,0.8-1.13,1.2c-0.12-0.05-0.24-0.1-0.37-0.15c-0.03-0.62-0.1-1.23-0.1-1.84
			c0-15.65,0-31.3-0.03-46.95C241.54,2.91,241.19,1.96,240.99,1z M398.6,131.14c0.04-0.48,0.09-0.77,0.09-1.06
			c0-21.41,0-42.82,0-64.23c0-0.39,0.01-0.82-0.12-1.18c-0.55-1.5-1.25-2.95-1.72-4.47c-2.01-6.45-5.31-12.03-11.13-15.69
			c-8.94-5.61-18.66-5.47-28.47-3.12c-6.95,1.66-12.47,5.72-16.86,11.33c-0.26,0.34-0.65,0.59-1.25,1.12
			c-0.04-0.9-0.09-1.39-0.09-1.87c0-2.73-0.06-5.47,0.02-8.2c0.04-1.34-0.5-1.7-1.74-1.7c-6.01,0.03-12.02,0-18.03,0
			c-2.25,0-2.25,0-2.25,2.34c0,15.35,0,30.7,0,46.05c0,12.92,0,25.83,0,38.75c0,1.95,0.08,2.02,2.01,2.02
			c6.36,0.01,12.72,0.03,19.07,0.03c1.99,0,2.11-0.13,2.11-2.11c0-13.81,0-27.62,0-41.43c0-6.42,0.87-12.69,3.62-18.55
			c3.22-6.88,8.45-11,16.32-11.21c7.52-0.2,12.89,3.88,14.22,11.22c0.67,3.69,1.1,7.47,1.12,11.22c0.12,16.29,0.05,32.59,0.05,48.88
			c0,1.83,0.1,1.94,1.94,1.95c6.56,0,13.12,0,19.67,0C397.61,131.23,398.05,131.17,398.6,131.14z M158.42,84.54
			c0,6.31,0.03,12.61-0.01,18.92c-0.02,4.45,0.37,8.82,1.87,13.05c2.84,8.02,8.42,13.17,16.55,15.54c6.14,1.79,12.42,1.23,18.65,0.8
			c2.35-0.16,4.66-0.92,7.01-1.32c1.29-0.22,1.56-1,1.5-2.13c-0.09-1.73-0.15-3.47-0.21-5.21c-0.09-3.22-0.16-6.45-0.26-9.68
			c-0.02-0.78-0.05-1.49-1.29-1.14c-2.47,0.7-4.95,1.52-7.48,1.77c-5.27,0.53-9.06-0.9-11.14-5.27c-1.39-2.92-1.75-6.1-1.76-9.29
			c-0.02-13.16-0.01-26.33-0.01-39.49c0-2.04,0.17-2.23,2.2-2.23c5.61,0,11.23-0.04,16.84,0.02c1.32,0.01,1.69-0.42,1.67-1.71
			c-0.07-4.32-0.02-8.64-0.03-12.96c0-2.08-0.01-2.1-2.04-2.1c-5.42-0.01-10.83-0.02-16.24-0.03c-2.34,0-2.4-0.07-2.4-2.46
			c0-6.96,0-13.91,0-20.86c0-1.66-0.28-1.88-1.82-1.45c-1.38,0.39-2.75,0.84-4.12,1.28c-5.24,1.69-10.45,3.43-15.71,5.04
			c-1.27,0.39-1.78,0.95-1.77,2.28c0.05,4.77-0.02,9.54,0.04,14.3c0.02,1.44-0.51,1.91-1.92,1.89c-4.42-0.05-8.84-0.01-13.26,0
			c-1.91,0-1.99,0.08-1.99,2.04c0,4.27,0.06,8.55-0.03,12.81c-0.03,1.56,0.54,1.95,1.99,1.92c4.37-0.07,8.74-0.03,13.11-0.02
			c1.98,0,2.09,0.11,2.09,2.14C158.42,68.84,158.42,76.69,158.42,84.54z M274,10.47c0,3.26,0,6.39,0,9.93
			c-2.48-3.01-4.82-5.59-6.83-8.4c-1.23-1.73-2.66-1.72-4.42-1.48c0,5.49,0,10.91,0,16.34c1.25,0,2.37,0,3.67,0
			c0-3.21,0-6.35,0-9.93c2.52,3.06,4.86,5.68,6.94,8.51c1.24,1.69,2.66,1.68,4.31,1.35c0-5.48,0-10.87,0-16.32
			C276.46,10.47,275.37,10.47,274,10.47z M336.09,26.79c0-5.46,0-10.88,0-16.27c-1.26,0-2.37,0-3.67,0c0,3.23,0,6.35,0,9.86
			c-2.46-2.99-4.8-5.57-6.81-8.38c-1.23-1.72-2.65-1.73-4.44-1.48c0,5.48,0,10.9,0,16.3c1.27,0,2.43,0,3.69,0c0-3.22,0-6.32,0-9.74
			c0.49,0.54,0.79,0.83,1.06,1.15c1.86,2.26,3.85,4.43,5.54,6.8C332.67,26.73,334.04,27.31,336.09,26.79z M281.6,10.52
			c0,5.5,0,10.92,0,16.18c3.27,0,6.47,0.3,9.58-0.07c4.4-0.53,6.97-3.94,6.81-8.32c-0.16-4.3-3.08-7.46-7.49-7.76
			C287.58,10.36,284.66,10.52,281.6,10.52z M308.7,10.13c-5.2-0.13-9.11,3.45-9.21,8.44c-0.1,4.85,3.68,8.55,8.86,8.66
			c5.2,0.11,9.13-3.5,9.21-8.46C317.64,13.87,313.94,10.26,308.7,10.13z M393.83,26.93c0.02-0.24,0.07-0.35,0.03-0.43
			c-2.28-5.11-4.54-10.22-6.84-15.32c-0.66-1.45-2.01-0.55-3.03-0.77c-0.79-0.17-1.24,0.22-1.57,0.98
			c-2.12,4.85-4.29,9.68-6.43,14.53c-0.12,0.28-0.17,0.61-0.26,0.95c1.27,0,2.73,0.43,3.46-0.11c0.91-0.68,1.21-2.17,1.79-3.33
			c0.05-0.01,0.15-0.06,0.24-0.06c1.58-0.01,3.17-0.02,4.76-0.02c2.57,0,2.55,0.01,3.59,2.36c0.21,0.47,0.65,1.1,1.06,1.16
			C391.69,27.05,392.77,26.93,393.83,26.93z M340.22,26.87c4.23,0,8.38,0,12.6,0c0-0.98,0-1.89,0-2.98c-2.99,0-5.89,0-8.85,0
			c0-1.35,0-2.51,0-3.89c2.57,0,5.06,0,7.52,0c0-1.09,0-1.96,0-2.99c-2.54,0-5,0-7.52,0c0-1.22,0-2.29,0-3.54c2.88,0,5.68,0,8.53,0
			c0-1.09,0-2,0-2.94c-4.15,0-8.19,0-12.28,0C340.22,16.02,340.22,21.41,340.22,26.87z M353.71,25.39c3.56,1.94,7.11,2.5,10.82,1.05
			c2.01-0.78,3.06-2.52,2.98-4.54c-0.08-2.14-1.36-3.34-3.26-3.94c-1.56-0.49-3.15-0.84-4.71-1.32c-0.85-0.26-1.94-0.69-1.59-1.76
			c0.22-0.67,1.18-1.5,1.85-1.54c1.49-0.08,3.01,0.27,4.51,0.5c0.46,0.07,0.88,0.33,1.39,0.53c0.39-1,0.75-1.89,1.08-2.76
			c-3.05-1.8-7.58-1.97-10.27-0.46c-1.66,0.94-2.51,2.39-2.46,4.28c0.05,1.88,1.08,3.16,2.81,3.83c0.97,0.37,1.98,0.62,2.98,0.92
			c0.95,0.28,1.95,0.45,2.82,0.88c0.48,0.24,1.03,0.96,1,1.44c-0.03,0.48-0.65,1.18-1.14,1.33c-0.92,0.28-1.98,0.43-2.91,0.26
			c-1.57-0.29-3.1-0.87-4.71-1.35C354.57,23.48,354.19,24.33,353.71,25.39z M258.87,26.87c0-5.52,0-10.95,0-16.34
			c-1.26,0-2.37,0-3.54,0c0,5.49,0,10.88,0,16.34C256.52,26.87,257.64,26.87,258.87,26.87z M373.99,26.87c0-5.51,0-10.9,0-16.34
			c-1.25,0-2.4,0-3.58,0c0,5.5,0,10.89,0,16.34C371.62,26.87,372.74,26.87,373.99,26.87z"/>
		<path class="st1" d="M240.99,1c0.19,0.95,0.55,1.91,0.55,2.87c0.03,15.65,0.02,31.3,0.03,46.95c0,0.62,0.06,1.23,0.1,1.84
			c0.12,0.05,0.24,0.1,0.37,0.15c0.38-0.4,0.78-0.78,1.13-1.2c4.01-4.78,8.82-8.4,14.87-10.23c4.13-1.26,8.38-1.57,12.66-1.36
			c5.77,0.27,11.3,1.47,16.36,4.39c6.95,4.01,11.64,9.96,14.57,17.32c3.82,9.59,4.75,19.6,4.1,29.83
			c-0.36,5.72-1.18,11.36-3.07,16.78c-3.63,10.38-9.69,18.62-20.42,22.61c-6.83,2.54-13.89,2.9-20.99,1.71
			c-7.69-1.29-14.26-4.75-19.26-10.92c-0.14-0.18-0.37-0.29-0.82-0.65c-0.09,0.74-0.2,1.22-0.2,1.71c-0.02,2.19-0.04,4.37,0,6.56
			c0.03,1.3-0.43,1.9-1.82,1.89c-6.36-0.04-12.72-0.01-19.07-0.02c-1.82,0-1.92-0.11-1.93-1.96c0-13.81,0-27.62,0-41.43
			c0-28.02,0-56.03,0.03-84.05c0-0.92,0.48-1.85,0.74-2.77C226.29,1,233.64,1,240.99,1z M241.78,85.15
			c0.02,7.54,1.01,13.62,3.85,19.29c3.27,6.54,8.4,10.55,15.88,10.8c7.07,0.24,12.26-3.09,15.63-9.23c2.33-4.23,3.47-8.83,4-13.61
			c0.98-8.86,0.19-17.45-4.03-25.47c-2.09-3.96-5.21-6.97-9.58-8.18c-8.13-2.26-15.16,0.34-20.01,7.35
			C243.29,72.2,241.87,79.13,241.78,85.15z"/>
		<path class="st1" d="M398.6,131.14c-0.55,0.03-0.99,0.08-1.42,0.08c-6.56,0-13.12,0-19.67,0c-1.83,0-1.94-0.11-1.94-1.95
			c0-16.3,0.07-32.59-0.05-48.88c-0.02-3.75-0.45-7.53-1.12-11.22c-1.33-7.34-6.7-11.43-14.22-11.22
			c-7.87,0.21-13.09,4.33-16.32,11.21c-2.75,5.86-3.62,12.13-3.62,18.55c0,13.81,0,27.62,0,41.43c0,1.97-0.12,2.11-2.11,2.11
			c-6.36,0-12.72-0.02-19.07-0.03c-1.92,0-2.01-0.07-2.01-2.02c0-12.92,0-25.83,0-38.75c0-15.35,0-30.7,0-46.05
			c0-2.33,0-2.34,2.25-2.34c6.01,0,12.02,0.03,18.03,0c1.25,0,1.79,0.35,1.74,1.7c-0.08,2.73-0.03,5.47-0.02,8.2
			c0,0.48,0.04,0.96,0.09,1.87c0.6-0.53,0.98-0.78,1.25-1.12c4.39-5.61,9.91-9.66,16.86-11.33c9.81-2.35,19.54-2.49,28.47,3.12
			c5.82,3.66,9.12,9.24,11.13,15.69c0.47,1.52,1.17,2.97,1.72,4.47c0.13,0.36,0.12,0.78,0.12,1.18c0,21.41,0,42.82,0,64.23
			C398.69,130.37,398.64,130.66,398.6,131.14z"/>
		<path class="st1" d="M158.42,84.54c0-7.85,0-15.7,0-23.55c0-2.02-0.11-2.13-2.09-2.14c-4.37,0-8.74-0.05-13.11,0.02
			c-1.45,0.02-2.02-0.37-1.99-1.92c0.1-4.27,0.03-8.54,0.03-12.81c0-1.96,0.08-2.03,1.99-2.04c4.42-0.01,8.84-0.06,13.26,0
			c1.42,0.02,1.94-0.45,1.92-1.89c-0.06-4.77,0.01-9.54-0.04-14.3c-0.01-1.32,0.5-1.89,1.77-2.28c5.26-1.6,10.48-3.35,15.71-5.04
			c1.37-0.44,2.74-0.89,4.12-1.28c1.55-0.44,1.82-0.22,1.82,1.45c0.01,6.96,0,13.91,0,20.86c0,2.39,0.06,2.45,2.4,2.46
			c5.42,0.01,10.83,0.01,16.24,0.03c2.03,0,2.04,0.02,2.04,2.1c0,4.32-0.04,8.64,0.03,12.96c0.02,1.3-0.35,1.73-1.67,1.71
			c-5.61-0.06-11.22-0.03-16.84-0.02c-2.03,0-2.2,0.19-2.2,2.23c0,13.16-0.01,26.33,0.01,39.49c0,3.19,0.37,6.37,1.76,9.29
			c2.08,4.36,5.87,5.79,11.14,5.27c2.53-0.25,5.01-1.08,7.48-1.77c1.23-0.35,1.26,0.36,1.29,1.14c0.1,3.22,0.17,6.45,0.26,9.68
			c0.05,1.74,0.11,3.47,0.21,5.21c0.06,1.13-0.21,1.91-1.5,2.13c-2.34,0.41-4.65,1.16-7.01,1.32c-6.24,0.43-12.51,0.99-18.65-0.8
			c-8.13-2.37-13.71-7.52-16.55-15.54c-1.5-4.22-1.9-8.6-1.87-13.05C158.45,97.16,158.42,90.85,158.42,84.54z"/>
		<path class="st1" d="M274,10.47c1.37,0,2.45,0,3.67,0c0,5.45,0,10.83,0,16.32c-1.65,0.33-3.07,0.34-4.31-1.35
			c-2.08-2.82-4.42-5.45-6.94-8.51c0,3.58,0,6.72,0,9.93c-1.29,0-2.41,0-3.67,0c0-5.43,0-10.85,0-16.34
			c1.76-0.24,3.19-0.25,4.42,1.48c2.01,2.81,4.35,5.39,6.83,8.4C274,16.86,274,13.73,274,10.47z"/>
		<path class="st1" d="M336.09,26.79c-2.04,0.52-3.41-0.06-4.62-1.76c-1.69-2.38-3.68-4.55-5.54-6.8c-0.26-0.32-0.56-0.62-1.06-1.15
			c0,3.42,0,6.52,0,9.74c-1.26,0-2.42,0-3.69,0c0-5.41,0-10.82,0-16.3c1.78-0.25,3.2-0.24,4.44,1.48c2.01,2.81,4.35,5.39,6.81,8.38
			c0-3.5,0-6.62,0-9.86c1.29,0,2.41,0,3.67,0C336.09,15.92,336.09,21.34,336.09,26.79z"/>
		<path class="st1" d="M281.6,10.52c3.06,0,5.99-0.16,8.9,0.04c4.41,0.3,7.33,3.46,7.49,7.76c0.16,4.37-2.4,7.79-6.81,8.32
			c-3.12,0.37-6.31,0.07-9.58,0.07C281.6,21.43,281.6,16.02,281.6,10.52z M285.33,23.69c1.67,0,3.16,0.14,4.63-0.03
			c2.61-0.3,4.19-2.21,4.26-4.88c0.07-2.57-1.38-4.61-3.9-5.04c-1.61-0.28-3.3-0.19-4.99-0.26
			C285.33,17.03,285.33,20.33,285.33,23.69z"/>
		<path class="st1" d="M308.7,10.13c5.24,0.13,8.94,3.75,8.86,8.64c-0.08,4.96-4.01,8.57-9.21,8.46c-5.18-0.11-8.96-3.81-8.86-8.66
			C299.58,13.57,303.49,9.99,308.7,10.13z M308.41,24.01c3.02,0.05,5.26-2.13,5.33-5.2c0.07-3.13-2.16-5.5-5.18-5.52
			c-2.96-0.02-5.22,2.26-5.25,5.31C303.27,21.68,305.42,23.95,308.41,24.01z"/>
		<path class="st1" d="M393.83,26.93c-1.06,0-2.15,0.11-3.19-0.05c-0.41-0.06-0.85-0.7-1.06-1.16c-1.04-2.35-1.01-2.36-3.59-2.36
			c-1.58,0-3.17,0.01-4.76,0.02c-0.09,0-0.19,0.05-0.24,0.06c-0.58,1.16-0.88,2.65-1.79,3.33c-0.73,0.55-2.19,0.11-3.46,0.11
			c0.09-0.35,0.13-0.67,0.26-0.95c2.14-4.84,4.31-9.67,6.43-14.53c0.33-0.76,0.78-1.15,1.57-0.98c1.02,0.21,2.37-0.69,3.03,0.77
			c2.3,5.1,4.57,10.21,6.84,15.32C393.9,26.59,393.85,26.7,393.83,26.93z M384.77,14.16c-0.92,2.23-1.72,4.16-2.58,6.22
			c1.79,0,3.36,0,5.15,0C386.49,18.32,385.69,16.4,384.77,14.16z"/>
		<path class="st1" d="M340.22,26.87c0-5.46,0-10.84,0-16.34c4.09,0,8.13,0,12.28,0c0,0.94,0,1.85,0,2.94c-2.85,0-5.65,0-8.53,0
			c0,1.25,0,2.32,0,3.54c2.52,0,4.98,0,7.52,0c0,1.03,0,1.9,0,2.99c-2.46,0-4.95,0-7.52,0c0,1.38,0,2.54,0,3.89
			c2.96,0,5.86,0,8.85,0c0,1.09,0,2,0,2.98C348.6,26.87,344.46,26.87,340.22,26.87z"/>
		<path class="st1" d="M353.71,25.39c0.48-1.06,0.86-1.91,1.19-2.65c1.61,0.48,3.13,1.06,4.71,1.35c0.93,0.17,1.99,0.01,2.91-0.26
			c0.5-0.15,1.11-0.85,1.14-1.33c0.03-0.47-0.52-1.19-1-1.44c-0.87-0.44-1.87-0.6-2.82-0.88c-0.99-0.3-2.01-0.55-2.98-0.92
			c-1.73-0.67-2.76-1.95-2.81-3.83c-0.05-1.88,0.79-3.34,2.46-4.28c2.69-1.52,7.22-1.34,10.27,0.46c-0.34,0.87-0.69,1.76-1.08,2.76
			c-0.51-0.2-0.93-0.46-1.39-0.53c-1.5-0.23-3.02-0.58-4.51-0.5c-0.67,0.03-1.63,0.86-1.85,1.54c-0.35,1.07,0.74,1.5,1.59,1.76
			c1.56,0.48,3.16,0.83,4.71,1.32c1.91,0.61,3.17,1.8,3.26,3.94c0.08,2.01-0.97,3.75-2.98,4.54
			C360.82,27.89,357.27,27.33,353.71,25.39z"/>
		<path class="st1" d="M258.87,26.87c-1.23,0-2.35,0-3.54,0c0-5.46,0-10.85,0-16.34c1.17,0,2.28,0,3.54,0
			C258.87,15.92,258.87,21.34,258.87,26.87z"/>
		<path class="st1" d="M373.99,26.87c-1.25,0-2.37,0-3.58,0c0-5.45,0-10.84,0-16.34c1.18,0,2.33,0,3.58,0
			C373.99,15.97,373.99,21.36,373.99,26.87z"/>
		<path class="st0" d="M241.78,85.15c0.09-6.02,1.51-12.96,5.72-19.04c4.85-7.01,11.88-9.61,20.01-7.35
			c4.38,1.22,7.5,4.22,9.58,8.18c4.23,8.01,5.02,16.6,4.03,25.47c-0.53,4.77-1.68,9.38-4,13.61c-3.37,6.15-8.56,9.47-15.63,9.23
			c-7.48-0.25-12.6-4.26-15.88-10.8C242.79,98.78,241.8,92.7,241.78,85.15z"/>
		<path class="st0" d="M285.33,23.69c0-3.36,0-6.66,0-10.21c1.69,0.07,3.38-0.01,4.99,0.26c2.51,0.44,3.96,2.46,3.9,5.04
			c-0.07,2.68-1.65,4.58-4.26,4.88C288.5,23.83,287,23.69,285.33,23.69z"/>
		<path class="st0" d="M308.41,24.01c-3-0.05-5.14-2.33-5.11-5.42c0.03-3.05,2.3-5.34,5.25-5.31c3.03,0.02,5.25,2.4,5.18,5.52
			C313.67,21.88,311.43,24.06,308.41,24.01z"/>
		<path class="st0" d="M384.77,14.16c0.92,2.24,1.72,4.16,2.57,6.22c-1.78,0-3.36,0-5.15,0C383.04,18.32,383.84,16.39,384.77,14.16z
			"/>
	</g>
	<g>
		<circle class="st2" cx="106.02" cy="57.84" r="6.05"/>
		<circle class="st2" cx="102.39" cy="34.39" r="7.07"/>
		<circle class="st2" cx="82.04" cy="15.98" r="9.64"/>
		<circle class="st2" cx="49.17" cy="12.99" r="11.99"/>
		<circle class="st2" cx="19.64" cy="37.56" r="16.95"/>
		<circle class="st2" cx="20.63" cy="81.29" r="19.63"/>
		<circle class="st2" cx="59.59" cy="110.29" r="23.7"/>
		<ellipse class="st2" cx="110.96" cy="99.14" rx="24.94" ry="25.21"/>
	</g>
</g>
</svg>
